<svg version="1.1"  xmlns="http://www.w3.org/2000/svg" xmlns:xlink="http://www.w3.org/1999/xlink" x="0px" y="0px"
	 viewBox="0 0 24 24" style="enable-background:new 0 0 24 24;" xml:space="preserve">
<path d="M16.9,23c-0.5,0-1-0.1-1.5-0.3c-6.1-3-11.1-7.9-14-14C0.7,7.2,1,5.6,2.1,4.4l2.8-2.8C5.3,1.2,5.9,1,6.5,1s1.1,0.3,1.4,0.7
	l3.4,3.9c0.7,0.8,0.6,2-0.1,2.8l-1.1,1.1c1.1,1.8,2.6,3.3,4.4,4.4l1.1-1.1c0.8-0.8,2-0.8,2.8-0.2l3.9,3.4c0.4,0.4,0.7,0.9,0.7,1.4
	c0,0.6-0.2,1.2-0.6,1.6l-2.8,2.8C18.8,22.6,17.9,23,16.9,23z M6.4,3L6.4,3L3.5,5.8C3,6.4,2.9,7.1,3.1,7.7
	c2.8,5.7,7.4,10.4,13.1,13.1c0.6,0.3,1.4,0.1,1.9-0.4l2.8-2.8c0.1-0.1,0.1-0.1,0-0.1L17,14.1c0,0-0.1,0-0.1,0.1l-1.4,1.4
	C15.3,15.8,15,16,14.7,16s-0.6,0-0.9-0.2C11.4,14.4,9.4,12.4,8,10c0-0.2-0.1-0.5,0-0.8c0-0.3,0.2-0.6,0.4-0.9L9.7,7V6.9L6.4,3z
	 M14.2,14.2L14.2,14.2L14.2,14.2z M9.8,9.8L9.8,9.8L9.8,9.8z"/>
</svg>
