<svg version="1.1" xmlns="http://www.w3.org/2000/svg" xmlns:xlink="http://www.w3.org/1999/xlink" x="0px" y="0px"
	 viewBox="0 0 16 16" style="enable-background:new 0 0 16 16;" xml:space="preserve">
<path d="M1,0C0.5,0,0,0.4,0,1c0,0.3,0.1,0.5,0.3,0.7L6.6,8l-6.3,6.3c-0.4,0.4-0.4,1,0,1.4c0.4,0.4,1,0.4,1.4,0c0,0,0,0,0,0L8,9.4
	l6.3,6.3c0.4,0.4,1,0.4,1.4,0s0.4-1,0-1.4c0,0,0,0,0,0L9.4,8l6.3-6.3c0.4-0.4,0.4-1,0-1.4C15.5,0.1,15.3,0,15,0
	c-0.3,0-0.5,0.1-0.7,0.3L8,6.6L1.7,0.3C1.5,0.1,1.3,0,1,0z"/>
</svg>
