<svg xmlns="http://www.w3.org/2000/svg" xmlns:xlink="http://www.w3.org/1999/xlink"><defs><symbol viewBox="0 0 16 16" id="main-close"><path d="M1 0C.5 0 0 .4 0 1c0 .3.1.5.3.7L6.6 8 .3 14.3c-.4.4-.4 1 0 1.4.4.4 1 .4 1.4 0L8 9.4l6.3 6.3c.4.4 1 .4 1.4 0s.4-1 0-1.4L9.4 8l6.3-6.3c.4-.4.4-1 0-1.4-.2-.2-.4-.3-.7-.3-.3 0-.5.1-.7.3L8 6.6 1.7.3C1.5.1 1.3 0 1 0z" /></symbol><symbol viewBox="0 0 24 24" id="main-phone"><path d="M16.9 23c-.5 0-1-.1-1.5-.3-6.1-3-11.1-7.9-14-14-.7-1.5-.4-3.1.7-4.3l2.8-2.8c.4-.4 1-.6 1.6-.6s1.1.3 1.4.7l3.4 3.9c.7.8.6 2-.1 2.8l-1.1 1.1c1.1 1.8 2.6 3.3 4.4 4.4l1.1-1.1c.8-.8 2-.8 2.8-.2l3.9 3.4c.4.4.7.9.7 1.4 0 .6-.2 1.2-.6 1.6l-2.8 2.8c-.8.8-1.7 1.2-2.7 1.2zM6.4 3 3.5 5.8c-.5.6-.6 1.3-.4 1.9 2.8 5.7 7.4 10.4 13.1 13.1.6.3 1.4.1 1.9-.4l2.8-2.8c.1-.1.1-.1 0-.1L17 14.1s-.1 0-.1.1l-1.4 1.4c-.2.2-.5.4-.8.4s-.6 0-.9-.2C11.4 14.4 9.4 12.4 8 10c0-.2-.1-.5 0-.8 0-.3.2-.6.4-.9L9.7 7v-.1L6.4 3zm7.8 11.2zM9.8 9.8z" /></symbol></defs></svg>